<?xml version="1.0" encoding="UTF-8" standalone="no" ?>
<!DOCTYPE svg PUBLIC "-//W3C//DTD SVG 1.1//EN" "http://www.w3.org/Graphics/SVG/1.1/DTD/svg11.dtd">
<svg xmlns="http://www.w3.org/2000/svg" xmlns:xlink="http://www.w3.org/1999/xlink" version="1.1" width="1080" height="1080" viewBox="0 0 1080 1080" xml:space="preserve">
<desc>Created with Fabric.js 4.2.0</desc>
<defs>
</defs>
<g transform="matrix(1 0 0 1 540 540)" id="be82c595-e0e6-404f-9a98-5946011e9331"  >
<rect style="stroke: none; stroke-width: 1; stroke-dasharray: none; stroke-linecap: butt; stroke-dashoffset: 0; stroke-linejoin: miter; stroke-miterlimit: 4; fill: rgb(255,255,255); fill-rule: nonzero; opacity: 1;" vector-effect="non-scaling-stroke"  x="-540" y="-540" rx="0" ry="0" width="1080" height="1080" />
</g>
<g transform="matrix(1 0 0 1 540 540)" id="bcb67eb9-1357-4fd4-a7db-1f8f6e6fc230"  >
</g>
<g transform="matrix(1 0 0 1 540 541.69)" style="" id="24eb10d8-59f6-415f-b28d-4ecd7e70ee7c"  >
		<text xml:space="preserve" font-family="Architects Daughter" font-size="45" font-style="normal" font-weight="400" style="stroke: none; stroke-width: 1; stroke-dasharray: none; stroke-linecap: butt; stroke-dashoffset: 0; stroke-linejoin: miter; stroke-miterlimit: 4; fill: rgb(254,209,54); fill-rule: nonzero; opacity: 1; white-space: pre;" ><tspan x="-216.46" y="14.14" >A</tspan><tspan x="-185.83" y="14.14" >G</tspan><tspan x="-152.87" y="14.14" >R</tspan><tspan x="-118.99" y="14.14" style="white-space: pre; "> </tspan><tspan x="-99.18" y="14.14" >D</tspan><tspan x="-68.2" y="14.14" >i</tspan><tspan x="-59.58" y="14.14" >g</tspan><tspan x="-34.58" y="14.14" >i</tspan><tspan x="-25.97" y="14.14" >t</tspan><tspan x="-5.98" y="14.14" >a</tspan><tspan x="18.72" y="14.14" >l</tspan><tspan x="27.59" y="14.14" >B</tspan><tspan x="61.39" y="14.14" >u</tspan><tspan x="86.04" y="14.14" >s</tspan><tspan x="110.43" y="14.14" >s</tspan><tspan x="134.81" y="14.14" >i</tspan><tspan x="143.43" y="14.14" >n</tspan><tspan x="167.73" y="14.14" >e</tspan><tspan x="193.87" y="14.14" >s</tspan></text>
</g>
</svg>