<svg id="Layer_1" data-name="Layer 1" xmlns="http://www.w3.org/2000/svg" viewBox="0 0 226.3 33.9">
  <defs>
    <style>
      .cls-1 {
        fill: #fcc800;
      }
    </style>
  </defs>
  <title>AGR LOGO</title>
  <g>
    <path class="cls-1" d="M18.4,5.4a2.2,2.2,0,0,1,1.2-.2c1.4.1,2.1.8,2.2,1.9a11,11,0,0,1-.4,2.8c-.9,4.2-1.6,7.6-2,10.2a57.7,57.7,0,0,0-.9,8.9c0,.8.1,1.8.2,3a6.8,6.8,0,0,1-2.5-2,4.1,4.1,0,0,1-.7-2.7,12.3,12.3,0,0,1,.1-1.7c.2-1.2.4-2.8.8-4.8l-2.2.3-2.5.5a81.7,81.7,0,0,1-5.8,8.9,6.1,6.1,0,0,1-1.4,1.4,1.9,1.9,0,0,1-1.5.3,1.9,1.9,0,0,1-1.6-1.4c1.9-.4,4.6-3.4,8.3-9.1H8.9a3.1,3.1,0,0,1-1.7-.5,1.5,1.5,0,0,1-.6-1.3c0-.3.1-.6.1-1a11.9,11.9,0,0,0,4.2.9c1.9-3,3.4-5.8,4.7-8.3A51,51,0,0,0,18.4,5.4ZM17,17.7c.5-2.7.9-5.6,1.4-8.6-1.9,3.9-3.8,7.4-5.6,10.7l3.9-.3A7.6,7.6,0,0,1,17,17.7Z" transform="translate(-1.4 -4.8)"/>
    <path class="cls-1" d="M26.4,25.6a4.8,4.8,0,0,0,.6,2.6,1.8,1.8,0,0,0,1.5.9c1,0,2.1-.8,3.2-2.4a35.1,35.1,0,0,0,3.5-6.2h-.7a2.7,2.7,0,0,1-2.1-.8,2.1,2.1,0,0,1-.4-1.9,4.9,4.9,0,0,0,2.5.5,29.3,29.3,0,0,0,4.5-.4c1.2-.1,1.8.2,1.8,1l-1.1.4-1.2.5a2.3,2.3,0,0,1-.1.7,37.3,37.3,0,0,1-1.8,5.7A66.8,66.8,0,0,0,34.5,33c-.7-.2-1.1-.8-1.1-1.8a2.9,2.9,0,0,1,.2-.9l.3-1.3c.1-.2.2-.8.4-1.5l.4-1.6c-2.1,3.2-4.3,4.8-6.4,4.8A3.8,3.8,0,0,1,25,29.1a7,7,0,0,1-1.2-4.4A28.2,28.2,0,0,1,25.7,15a38.5,38.5,0,0,1,2.4-5,13.5,13.5,0,0,1,3.2-3.8,6,6,0,0,1,3.8-1.4c1.3,0,2.1.2,2.4.8,2.3.1,3.4,1.3,3.4,3.6a5.7,5.7,0,0,1-.9,3.2,2.6,2.6,0,0,1-2.3,1.4,8.4,8.4,0,0,0,1.1-4.1,4.6,4.6,0,0,0-.5-2.3,1.9,1.9,0,0,0-1.6-.9c-1.3,0-2.5.7-3.8,2.2a16.9,16.9,0,0,0-3.4,5.1,42.6,42.6,0,0,0-2.2,6.3A20.8,20.8,0,0,0,26.4,25.6Z" transform="translate(-1.4 -4.8)"/>
    <path class="cls-1" d="M44.5,30.8a2.4,2.4,0,0,1-1.5-.9,2.5,2.5,0,0,1-.5-1.7,4.7,4.7,0,0,1,.3-1.7C45.6,15.8,46.9,9.9,47,8.9a2,2,0,0,1,1.1-.3c1.2,0,1.8.6,1.8,1.7a10.4,10.4,0,0,1-.9,3.6q-1.1,3-1.8,5.4c-.4,1.3-.9,2.9-1.4,5A62.2,62.2,0,0,0,44.5,30.8ZM57.3,12a8.3,8.3,0,0,1-2.2,5.6,8.8,8.8,0,0,1-4.9,3.3,25.6,25.6,0,0,0,2.9,5.7,11.9,11.9,0,0,0,3.8,3.7,4.7,4.7,0,0,1-1,1,2.7,2.7,0,0,1-1.4.5c-1.3,0-2.5-1.5-3.7-4.5a78.8,78.8,0,0,1-2.7-9.2,2.2,2.2,0,0,0,1.2.2A6.6,6.6,0,0,0,54,16.4,5.8,5.8,0,0,0,56,12a5.4,5.4,0,0,0-1.1-3.5,4.2,4.2,0,0,0-3.3-1.4,8.5,8.5,0,0,0-3.5.8,7.2,7.2,0,0,0-2.7,2.5,2.1,2.1,0,0,1-1-1.7A2,2,0,0,1,45,7.3a4.7,4.7,0,0,1,2.2-1.6,11.3,11.3,0,0,1,3.2-.5,6.6,6.6,0,0,1,5.1,2A6.8,6.8,0,0,1,57.3,12Z" transform="translate(-1.4 -4.8)"/>
    <path class="cls-1" d="M73.9,13.4l-1.2,3.2L72,18.3l-.6,1.3a1.9,1.9,0,0,1-.2.7,3,3,0,0,0-.4,1,10.4,10.4,0,0,1-.4,1c-.8,2.2-1.4,4.2-1.9,5.9l1.9.2a7.5,7.5,0,0,0,4.4-1.5,12.4,12.4,0,0,0,3.5-3.7,20.9,20.9,0,0,0,2.2-4.8,13.5,13.5,0,0,0,.8-4.6,7.3,7.3,0,0,0-1.6-5A5.8,5.8,0,0,0,75.2,7q-5.4,0-6.9,6.6a2.3,2.3,0,0,1-1.7-2.3,4.7,4.7,0,0,1,2.6-4.2,10.2,10.2,0,0,1,5.6-1.7,8.1,8.1,0,0,1,6.4,2.7,10.4,10.4,0,0,1,2.3,6.8,16.5,16.5,0,0,1-1,5.2,21.7,21.7,0,0,1-2.6,5.3,12.4,12.4,0,0,1-4,3.9,8.7,8.7,0,0,1-5,1.6,5.8,5.8,0,0,1-2.8-.6,3.9,3.9,0,0,1-1.6-1.8,3.3,3.3,0,0,1-.3-1.5,19.2,19.2,0,0,1,1.6-6.3c2.3-6.4,3.7-10.3,4-11.9a1.6,1.6,0,0,1,1.1-.3c1.4,0,2.1.6,2.1,1.7A19,19,0,0,1,73.9,13.4Z" transform="translate(-1.4 -4.8)"/>
    <path class="cls-1" d="M86.8,28.6a4.2,4.2,0,0,0,2.3-1.3,14.8,14.8,0,0,0,3-3.4c.4.3.3.8-.2,1.6A14.7,14.7,0,0,1,89,28.7a5.1,5.1,0,0,1-3,1.4,1.9,1.9,0,0,1-1.6-.9,3.8,3.8,0,0,1-.6-2.2,17.5,17.5,0,0,1,1.1-4.7,25.6,25.6,0,0,0,1.1-4l1.2-.3c1.1,0,1.6.4,1.6,1.4a12.2,12.2,0,0,1-1.4,4A13.9,13.9,0,0,0,86,27.6C86,28.3,86.3,28.6,86.8,28.6Zm1.7-16.2a2.1,2.1,0,0,1,1.2.3,1.2,1.2,0,0,1,.6,1,6.7,6.7,0,0,1-1,2.4c-1.2,0-1.8-.4-1.8-1.3a3.9,3.9,0,0,1,.3-1.4C88,12.8,88.2,12.5,88.5,12.4Z" transform="translate(-1.4 -4.8)"/>
    <path class="cls-1" d="M90.6,36.1a8.1,8.1,0,0,1,1.7-4,17.1,17.1,0,0,1,4.1-3.9l.4-1.1a4.8,4.8,0,0,1-3.2,1.7c-1.4,0-2.2-1-2.2-3.1a8.6,8.6,0,0,1,1.9-5.3c1.3-1.7,2.6-2.5,4-2.5A3.1,3.1,0,0,1,99.5,19l.3-1.1a2.3,2.3,0,0,1,1.8-.1c.6.2.8.5.7,1.1a52.7,52.7,0,0,1-2.8,7.3,24.9,24.9,0,0,1,5.5-2.3c.1,0,.1.1.1.3s-.2.4-.3.4l-2.1,1.1a36.1,36.1,0,0,0-3.9,2.2l-2.4,6.4c-1.3,2.9-2.7,4.3-4.1,4.3a1.5,1.5,0,0,1-1.3-.7A3.4,3.4,0,0,1,90.6,36.1Zm3.9-2.5,1.2-3.3c-2.3,2-3.5,3.9-3.6,5.6a.8.8,0,0,0,0,.7c.1.2.2.3.4.3S93.6,35.8,94.5,33.6ZM94,27.3A3.5,3.5,0,0,0,96.2,26a13.3,13.3,0,0,0,2.1-3.3l1-3h0a2.2,2.2,0,0,0-1.4,0,4.6,4.6,0,0,0-2.7,2.2A9.4,9.4,0,0,0,94,26.1Z" transform="translate(-1.4 -4.8)"/>
    <path class="cls-1" d="M106.9,28.6a4.1,4.1,0,0,0,2.4-1.3,14.8,14.8,0,0,0,3-3.4c.4.3.3.8-.2,1.6a17.8,17.8,0,0,1-2.9,3.2,5.1,5.1,0,0,1-3,1.4,1.8,1.8,0,0,1-1.6-.9A3.8,3.8,0,0,1,104,27a16.4,16.4,0,0,1,1-4.7,17.2,17.2,0,0,0,1.1-4l1.3-.3c1.1,0,1.6.4,1.6,1.4a15.4,15.4,0,0,1-1.4,4,11.4,11.4,0,0,0-1.4,4.2C106.2,28.3,106.4,28.6,106.9,28.6Zm1.7-16.2a2.5,2.5,0,0,1,1.3.3,1.4,1.4,0,0,1,.5,1,6,6,0,0,1-.9,2.4c-1.2,0-1.8-.4-1.8-1.3a3.9,3.9,0,0,1,.3-1.4C108.2,12.8,108.4,12.5,108.6,12.4Z" transform="translate(-1.4 -4.8)"/>
    <path class="cls-1" d="M111.9,18.2h2.4a15.1,15.1,0,0,0,.8-3.8,3.3,3.3,0,0,1,1.5-.3c.9,0,1.4.4,1.4,1.1a6.7,6.7,0,0,1-.7,2.7h.9c.7,0,1.1.2,1.2.7a1.9,1.9,0,0,1,.1,1.3c-.2-.2-1.1-.3-2.8-.3-.1.2-.4,1-1,2.2s-.8,1.9-1,2.4a9.3,9.3,0,0,0-1,3.7c0,1,.3,1.5,1.1,1.5a5.4,5.4,0,0,0,3-1.6,19.3,19.3,0,0,0,3.2-4,1.3,1.3,0,0,1,.1,1.1l-.6,1.2a13.3,13.3,0,0,1-2.8,3.1,5.8,5.8,0,0,1-3.5,1.5,2.6,2.6,0,0,1-2.1-.9,3.2,3.2,0,0,1-.8-2.3,8.9,8.9,0,0,1,.6-3l.5-1.5.7-1.8a15.8,15.8,0,0,0,.7-1.6h-1.5a.8.8,0,0,1-.5-.7C111.7,18.5,111.7,18.3,111.9,18.2Z" transform="translate(-1.4 -4.8)"/>
    <path class="cls-1" d="M133.7,25.9a15,15,0,0,1-2.7,2.9,4.5,4.5,0,0,1-2.7,1.3,2.1,2.1,0,0,1-1.5-.7,3.7,3.7,0,0,1-.5-2,6.2,6.2,0,0,1,.1-1.3c-1.4,2.2-2.8,3.3-4.3,3.3s-2.2-1-2.2-3.1a8.3,8.3,0,0,1,1.9-5.4,5.1,5.1,0,0,1,4-2.4,3,3,0,0,1,2,1c.1-.6.2-1.1.2-1.3a2.8,2.8,0,0,1,1.3-.3,1.4,1.4,0,0,1,1.6,1.6,11.3,11.3,0,0,1-1.2,3.9,11.4,11.4,0,0,0-1.2,4.2c0,.7.2,1,.6,1s1.4-.5,2.6-1.6a19.9,19.9,0,0,0,2.5-3.1c.3.2.3.4.2.7A5.7,5.7,0,0,1,133.7,25.9Zm-11.2,1.9c.9,0,1.9-.7,2.9-2.2a15.1,15.1,0,0,0,2.2-4.8v-.5a2.8,2.8,0,0,0-1.3,0,4.5,4.5,0,0,0-2.6,2.2,8.3,8.3,0,0,0-1.3,4.2Z" transform="translate(-1.4 -4.8)"/>
    <path class="cls-1" d="M141.9,8.1a19,19,0,0,1-1.5,5.3c-1.2,3-2.2,5.7-3,8a19.8,19.8,0,0,0-1.5,5.9c0,.9.3,1.3.9,1.3a3,3,0,0,0,1.9-1.2,32.9,32.9,0,0,0,2.7-3.7c.2.2.2.6,0,1.3a10.3,10.3,0,0,1-2.2,3.4,4.1,4.1,0,0,1-3.3,1.9c-1.5,0-2.3-1.1-2.3-3.4a23.4,23.4,0,0,1,1.1-5.9c.8-2.7,1.7-5.3,2.6-7.8s1.6-5,1.9-6.3a2.7,2.7,0,0,1,1.2-.3A1.3,1.3,0,0,1,141.9,8.1Z" transform="translate(-1.4 -4.8)"/>
    <path class="cls-1" d="M149.3,13.7l-1.3,3a2.1,2.1,0,0,1,1.8-.7l1.6.4a7,7,0,0,0,3.5-2,5.3,5.3,0,0,0,1.5-3.2,4,4,0,0,0-.8-2.9,3.4,3.4,0,0,0-2.7-1.1,9.1,9.1,0,0,0-3.7.9,10,10,0,0,0-3.3,2.4,1.4,1.4,0,0,1-.8-1.4,2.5,2.5,0,0,1,.7-1.7,6,6,0,0,1,2.5-1.6,10.9,10.9,0,0,1,3.6-.6,6.4,6.4,0,0,1,4.4,1.4,4.6,4.6,0,0,1,1.6,3.8,5.5,5.5,0,0,0-.1.9,7.9,7.9,0,0,1-4.3,6.3,6,6,0,0,1,1.6,2.4,8,8,0,0,1,.3,3.1,9.1,9.1,0,0,1-3,5.8,8.9,8.9,0,0,1-6.2,2.6,6.1,6.1,0,0,1-2.8-.6,3.5,3.5,0,0,1-2-3.3,18.2,18.2,0,0,1,.7-3.6l1.1-2.9,2.2-5.8c1.6-4.1,2.3-6.1,2.3-6.3a2.1,2.1,0,0,1,1.2-.3c1.2,0,1.7.6,1.6,1.8A9.9,9.9,0,0,1,149.3,13.7ZM145.6,29a8.7,8.7,0,0,0,5.4-1.9,6.8,6.8,0,0,0,2.6-4.7c.2-1.9-.3-3.3-1.4-4.1a6.6,6.6,0,0,1-2.7.6c-1,0-1.6-.4-1.7-1.2v-.3c-2,4.9-3.4,8.6-4.3,11.2A7.8,7.8,0,0,0,145.6,29Z" transform="translate(-1.4 -4.8)"/>
    <path class="cls-1" d="M162,20.8l-1.3,3.1a15.1,15.1,0,0,0-1,3.5c-.1.5,0,.7.2.7s1.9-1.2,3.3-3.5a24.5,24.5,0,0,0,2.8-6.1,4.2,4.2,0,0,1,1.7.2,1.3,1.3,0,0,1,.7,1.2,8.7,8.7,0,0,1-1.3,3.6,8.3,8.3,0,0,0-1.4,3.6,1.3,1.3,0,0,0,.2.9.8.8,0,0,0,.7.4,3.4,3.4,0,0,0,2.3-1.4,16.8,16.8,0,0,0,2.6-3.5.9.9,0,0,1,.1.8,1.9,1.9,0,0,1-.3,1c-1.9,3.1-3.8,4.7-5.6,4.7a2,2,0,0,1-1.9-1.2,4.2,4.2,0,0,1-.5-2.8c-1.5,2.3-2.8,3.4-4,3.4a1.5,1.5,0,0,1-1.3-.7,3,3,0,0,1-.4-1.8,28.4,28.4,0,0,1,1.5-7.2,10.8,10.8,0,0,0,.5-1.9l1.3-.2c1.1,0,1.7.4,1.7,1.3a3,3,0,0,1-.3,1.1Z" transform="translate(-1.4 -4.8)"/>
    <path class="cls-1" d="M176.4,19.3a6.4,6.4,0,0,0-2,1.6,3.1,3.1,0,0,0-.7,1.7,1.7,1.7,0,0,0,.6,1.1h.3l.3.2.4.2h.3a3.6,3.6,0,0,1,1.3.9,1.5,1.5,0,0,1,.4,1.1,3.1,3.1,0,0,1-1.2,2.3,10.1,10.1,0,0,1-3.1,1.8,14.3,14.3,0,0,1-3.5.7,1.6,1.6,0,0,1-1.1-.3,16.7,16.7,0,0,0,4.3-1.4c1.6-.9,2.4-1.6,2.5-2.3s-.6-1-1.9-1.7a7,7,0,0,1-1.6-1,2,2,0,0,1-.7-1.6,5.1,5.1,0,0,1,1.7-3.6,5.9,5.9,0,0,1,3.8-1.7,2.1,2.1,0,0,1,1.2.3,1.1,1.1,0,0,1,.5.9,4,4,0,0,1-.9,2.1c-.6.8-1.1,1.3-1.5,1.4A7.9,7.9,0,0,1,176.4,19.3Z" transform="translate(-1.4 -4.8)"/>
    <path class="cls-1" d="M185,19.3a6,6,0,0,0-1.9,1.6,2.5,2.5,0,0,0-.7,1.7,1.7,1.7,0,0,0,.6,1.1h.3l.3.2.3.2h.4a4.8,4.8,0,0,1,1.3.9,2.1,2.1,0,0,1,.4,1.1,3.1,3.1,0,0,1-1.2,2.3,11.5,11.5,0,0,1-3.1,1.8,16.3,16.3,0,0,1-3.5.7,2.1,2.1,0,0,1-1.2-.3,17.5,17.5,0,0,0,4.4-1.4c1.6-.9,2.4-1.6,2.4-2.3s-.6-1-1.8-1.7a7.5,7.5,0,0,1-1.7-1,2,2,0,0,1-.7-1.6,4.8,4.8,0,0,1,1.8-3.6,5.7,5.7,0,0,1,3.7-1.7,2.5,2.5,0,0,1,1.3.3,1,1,0,0,1,.4.9,4.6,4.6,0,0,1-.8,2.1c-.6.8-1.1,1.3-1.5,1.4A10.4,10.4,0,0,1,185,19.3Z" transform="translate(-1.4 -4.8)"/>
    <path class="cls-1" d="M191.7,28.6a4.7,4.7,0,0,0,2.4-1.3,17.5,17.5,0,0,0,2.9-3.4c.4.3.3.8-.2,1.6a14.7,14.7,0,0,1-2.9,3.2,5.1,5.1,0,0,1-3,1.4,1.9,1.9,0,0,1-1.6-.9,3.8,3.8,0,0,1-.6-2.2,17.5,17.5,0,0,1,1.1-4.7,25.6,25.6,0,0,0,1.1-4l1.2-.3c1.1,0,1.6.4,1.6,1.4a12.2,12.2,0,0,1-1.4,4,13.9,13.9,0,0,0-1.4,4.2C190.9,28.3,191.2,28.6,191.7,28.6Zm1.7-16.2a2.1,2.1,0,0,1,1.2.3,1.2,1.2,0,0,1,.6,1,6.7,6.7,0,0,1-1,2.4c-1.2,0-1.8-.4-1.8-1.3a3.9,3.9,0,0,1,.3-1.4C192.9,12.8,193.1,12.5,193.4,12.4Z" transform="translate(-1.4 -4.8)"/>
    <path class="cls-1" d="M204.5,27.5c0,.8.2,1.2.8,1.2s2.7-1.6,4.9-4.8c.4.3.4.9-.2,1.8a11.8,11.8,0,0,1-2.5,3,5,5,0,0,1-3.1,1.4,2.1,2.1,0,0,1-1.6-.8,3.3,3.3,0,0,1-.6-2.1,24.9,24.9,0,0,1,1.9-7.5,11.3,11.3,0,0,0-3.4,3.4,19.4,19.4,0,0,0-3,5.9,2.3,2.3,0,0,1-1.3-.3,1.8,1.8,0,0,1-.4-1.4,20.1,20.1,0,0,1,.8-3.9,24.4,24.4,0,0,0,1.3-5.6,3.5,3.5,0,0,1,1.4-.3c.9,0,1.3.4,1.3,1.2a16.5,16.5,0,0,1-1.5,4.8,10,10,0,0,1,1.9-2.6c1.7-2.1,3.1-3.1,4.2-3.1a1.5,1.5,0,0,1,1.1.4,1.2,1.2,0,0,1,.4,1,6.5,6.5,0,0,1-.4,1.8l-.4,1.1-.4.9-.4,1.1A8.6,8.6,0,0,0,204.5,27.5Z" transform="translate(-1.4 -4.8)"/>
    <path class="cls-1" d="M214.1,28.4a6.8,6.8,0,0,0,3.6-1.1,9.8,9.8,0,0,0,3.4-3.3,2.1,2.1,0,0,1-.4,2.2,13.4,13.4,0,0,1-2.1,2,9.8,9.8,0,0,1-4.9,1.6,4.1,4.1,0,0,1-3-1.2,4.9,4.9,0,0,1-1.1-3.3,8,8,0,0,1,1.6-4.9c1.1-1.5,2.3-2.3,3.7-2.3h.7a1.2,1.2,0,0,1,.9-.3,1.5,1.5,0,0,1,1.4.7,2.4,2.4,0,0,1,.6,1.8,4.5,4.5,0,0,1-1.4,3.3,6.3,6.3,0,0,1-3.2,1.7c-.7.1-1.1,0-1.3-.4a5,5,0,0,0,2.7-1.7,3.8,3.8,0,0,0,1.1-2.5,2.3,2.3,0,0,0-.3-1.1,4.8,4.8,0,0,0-2.9,2.4,7.2,7.2,0,0,0-1.1,3.9C212.1,27.6,212.8,28.4,214.1,28.4Z" transform="translate(-1.4 -4.8)"/>
    <path class="cls-1" d="M225.9,19.3a6.4,6.4,0,0,0-2,1.6,3.1,3.1,0,0,0-.7,1.7,1.7,1.7,0,0,0,.6,1.1h.3l.3.2.4.2h.3a3.6,3.6,0,0,1,1.3.9,1.5,1.5,0,0,1,.4,1.1,3.1,3.1,0,0,1-1.2,2.3,10.1,10.1,0,0,1-3.1,1.8,15.2,15.2,0,0,1-3.5.7,1.6,1.6,0,0,1-1.1-.3,16.7,16.7,0,0,0,4.3-1.4c1.6-.9,2.4-1.6,2.5-2.3s-.6-1-1.9-1.7a7,7,0,0,1-1.6-1,2.1,2.1,0,0,1-.8-1.6,4.8,4.8,0,0,1,1.8-3.6,5.9,5.9,0,0,1,3.8-1.7,2.1,2.1,0,0,1,1.2.3,1.1,1.1,0,0,1,.5.9,4,4,0,0,1-.9,2.1c-.6.8-1.1,1.3-1.5,1.4A7.9,7.9,0,0,1,225.9,19.3Z" transform="translate(-1.4 -4.8)"/>
  </g>
</svg>
