<svg id="Layer_1" data-name="Layer 1" xmlns="http://www.w3.org/2000/svg" viewBox="0 0 452 306.6"><defs><style>.cls-1{fill:#fcc800;}</style></defs><title>AGR DIGITALBUSSINESS</title><path class="cls-1" d="M744.2,367.2a17.2,17.2,0,0,1,9-1.2c10.9.8,16.6,5.6,17.3,14.5q.2,8.5-3,21.9c-7.1,32-12.3,58.1-15.5,78.1q-7.1,42.8-7,68.7c0,6.1.4,13.9,1.2,23.3q-13.8-7.8-19.2-15.3c-3.5-5-5.3-12.1-5.3-21.1q0-4.2.9-12.9c1.3-9,3.4-21.4,6.1-37.1l-17,2.7c-10,1.9-16.4,3-19.1,3.4q-25.8,43.6-44.7,68.4c-4.2,5.3-7.9,9-11.2,11.2a15,15,0,0,1-11.1,2.1c-6.2-.6-10.4-4.2-12.6-10.6q21.6-4.9,63.8-69.9a31,31,0,0,1-5.6-.3c-6.6-.6-11.2-2-13.8-4.1s-3.9-5.4-3.9-9.9a45.5,45.5,0,0,1,.7-7.6c7.9,3.9,18.7,6.1,32.3,6.6,14.1-23.2,26-44.3,35.9-63.6C733.6,393,740.8,377.2,744.2,367.2Zm-11.1,94.9q5.5-31.7,10.9-66-21.6,44.5-43.4,82.2c2.4,0,12.4-.7,30.1-2.2C732,468.4,732.8,463.7,733.1,462.1Z" transform="translate(-602.4 -362.3)"/><path class="cls-1" d="M805.6,523.5c0,8.4,1.6,14.9,4.7,19.5s6.9,6.9,11.6,6.9c7.8,0,16.1-6.1,25-18.4s18-28.7,26.4-47.8a49.3,49.3,0,0,1-5.3.2q-10.7,0-15.9-6.3c-3.5-4.2-4.4-9.1-2.8-14.8,3.7,2.7,10.1,4.1,19,4.1s19.7-1,34.4-3.1q14.1-1.5,14.1,7.2l-8.8,3.4a65.2,65.2,0,0,1-9.2,3.7,18.8,18.8,0,0,1-.5,5.8c-.9,6-5.5,20.5-13.8,43.4s-13.3,40-16.2,52.9c-5.6-1.9-8.3-6.5-8.3-13.8a20.3,20.3,0,0,1,1-6.8l2.4-9.9c.6-2.1,1.7-6.2,3.2-12.2s2.5-10,3.1-12.1c-16.3,24.6-32.7,36.9-49,36.9-11.2,0-19.8-4.1-26-12.1s-9.2-19.5-9.2-34q0-34.1,15.3-74.8a242.5,242.5,0,0,1,17.9-38.5c7.2-12.2,15.5-22,25-29.4s19.4-11.2,29.4-11.2,15.8,2.1,18.7,6.3c17.3,1.3,26,10.6,26,27.9a44.2,44.2,0,0,1-7.3,25c-4.7,7.2-10.6,10.7-17.7,10.7a60.3,60.3,0,0,0,8.9-31.5c0-7.8-1.5-13.9-4.5-18.2a13.8,13.8,0,0,0-12-6.6c-9.7,0-19.5,5.5-29.6,16.5A149.3,149.3,0,0,0,829.9,432a335.3,335.3,0,0,0-17.5,48.5C807.9,497,805.6,511.3,805.6,523.5Z" transform="translate(-602.4 -362.3)"/><path class="cls-1" d="M945.2,563.5a19.2,19.2,0,0,1-11.3-7.2,21.3,21.3,0,0,1-4.3-13.4,33.8,33.8,0,0,1,2.7-13.1q31.8-123.6,32.3-135.7a17.5,17.5,0,0,1,8.7-1.9c9.1,0,13.6,4.3,13.6,13.1,0,6.6-2.2,15.8-6.5,27.4-5.5,15.7-10.2,29.5-14.1,41.5-3.3,10-6.8,22.9-10.7,38.6Q948.9,540,945.2,563.5Zm98.7-145.4q0,23.4-16.5,43.5t-38.1,25a191.8,191.8,0,0,0,22.4,43.9c9.7,14.1,19.4,23.6,29.1,28.6a24.1,24.1,0,0,1-7.8,7.8,18.1,18.1,0,0,1-10.2,3.6q-15.3,0-28.6-33.9c-6.6-17.3-13.8-41-21.4-71.1a26.3,26.3,0,0,0,9.7,1.7c13.6,0,25.7-5.1,36.2-15.1s15.8-21.3,15.8-34a41.6,41.6,0,0,0-9.2-26.7c-6-7.4-14.4-11.1-25.3-11.1a59.6,59.6,0,0,0-27,6.4,49,49,0,0,0-20.5,18.8c-5.1-2.9-7.6-7.2-7.6-12.8a15.1,15.1,0,0,1,4.4-10.7c3.7-5.2,9.3-9.2,16.9-12a69.2,69.2,0,0,1,25.1-4.3c16.6,0,29.6,5.1,38.8,15.3S1043.9,403.3,1043.9,418.1Z" transform="translate(-602.4 -362.3)"/><path class="cls-1" d="M630.4,592.2c-11.2,0-18.9,8.2-22.4,16q-.2.6-.6.6c-2.5,0-5-5.4-5-7.3,0-.2.1-.3.1-.5,4-5,15.5-11.4,27.4-11.4,19.3,0,32.4,15.2,32.4,29.6s-11.7,29.7-31.9,29.7a51.8,51.8,0,0,1-13.4-2c-2.1-1.2-6.9-5-6.9-8,0-.2.1-.6.9-.6a44.7,44.7,0,0,0,18.5,4.5c13.9,0,24.4-8.7,24.4-24.1,0-11-7.1-25.4-21.2-26.5Zm-4.7,42.9a40.4,40.4,0,0,0,.4,6.2c-2.4-.1-6.7-2.9-7.6-5a50.2,50.2,0,0,1-.7-8.7c0-16.1,6.2-33.2,8.3-33.2s9,2.9,9,4.3-.3.4-.6.4S625.7,618.9,625.7,635.1Z" transform="translate(-602.4 -362.3)"/><path class="cls-1" d="M665.3,629.9c0-3.9,1-11.1,3.2-11.1s8.2,3.4,8.2,4.5a.4.4,0,0,1-.4.4c-1.4,0-2.7,6.9-2.7,12.3,0,3.1.4,5.6,1.5,6.4,5.2,0,11.4-16.6,11.8-17.9s.2-.5.4-.5a.6.6,0,0,1,.5.6c-.5,1.5-5.1,20.6-10.7,20.6s-8.8-2.2-10.2-5.1A28.7,28.7,0,0,1,665.3,629.9Zm15.5-19.7c0,.4-4.2,1.4-4.2,5.7-2.7-.7-6.6-2.3-6.6-5.7a4,4,0,0,1,3.9-4C675,606.2,680.8,608.1,680.8,610.2Z" transform="translate(-602.4 -362.3)"/><path class="cls-1" d="M687.1,661.6a.7.7,0,0,1,.7-.7c1.2,0,4.1,4.6,8.9,4.6,7.1,0,7.3-10.8,7.3-14.3a122.2,122.2,0,0,0-1.4-15.7c0-.4-.1-.6-.1-.9-1.1,5.2-2.5,9.7-4.1,10.6-11.7,0-12-9.8-12-15s2.6-11.5,6.7-11.5c1.6,0,6.7.9,9,2.2.5-1.2,1-2,2.1-2s8.2,3.4,8.2,4.3-1.4.8-1.4,4.6,1.3,11.6,1.3,19.5a44.7,44.7,0,0,1-.9,9.8c-1,3.5-4.5,11.9-10.3,11.9-3.7,0-9.6-2.3-13.4-6.5A1.2,1.2,0,0,1,687.1,661.6Zm14.8-32.8a6.5,6.5,0,0,1-.2-1.9,25.5,25.5,0,0,1,.2-4c-4,1.3-7.1,7.4-7.1,13.1a12.4,12.4,0,0,0,1.6,6.4C698.8,639.4,701.1,632.9,701.9,628.8Z" transform="translate(-602.4 -362.3)"/><path class="cls-1" d="M714.8,629.9c0-3.9,1.1-11.1,3.2-11.1s8.2,3.4,8.2,4.5-.2.4-.3.4-2.7,6.9-2.7,12.3c0,3.1.4,5.6,1.4,6.4,5.2,0,11.4-16.6,11.8-17.9s.3-.5.4-.5a.6.6,0,0,1,.6.6c-.6,1.5-5.1,20.6-10.8,20.6s-8.7-2.2-10.1-5.1A28.5,28.5,0,0,1,714.8,629.9Zm15.6-19.7c0,.4-4.2,1.4-4.2,5.7-2.7-.7-6.6-2.3-6.6-5.7a3.9,3.9,0,0,1,3.8-4C724.5,606.2,730.4,608.1,730.4,610.2Z" transform="translate(-602.4 -362.3)"/><path class="cls-1" d="M746,642.4c5.2,0,11.4-16.6,11.6-17.9s.2-.5.4-.5a.5.5,0,0,1,.5.5c0,.2-4.7,20.7-10.7,20.7-10.5,0-12.3-7.1-12.3-20.1,0-2.6.3-5.5.4-8.4l-4.6.3c-.3,0-.3-.2-.3-.5s.4-1.5,2.2-1.5h3c.8-7.8,2.5-15.1,4.2-15.1s8.8,2.9,8.8,4.2a.7.7,0,0,1-.4.6c-1.4,0-2.7,4.6-3.6,10.1h7.4c.3,0,.4.1.4.3s-.8.8-1.8.9l-6.3.3a99.3,99.3,0,0,0-1.2,14.3c0,4.5.4,8.5,1.3,10.4A2.2,2.2,0,0,0,746,642.4Z" transform="translate(-602.4 -362.3)"/><path class="cls-1" d="M772.8,636.2c-.9,4.5-2.1,8.2-3.5,9-11.7,0-12.1-9.8-12.1-15s2.7-11.5,6.7-11.5c1.7,0,7.6,1.1,9.6,2.6.4-1.4,1.1-2.5,1.8-2.5,2.8,0,8.3,3.6,8.3,4.5a.4.4,0,0,1-.3.4c-1.5,0-2.8,6.9-2.8,12.3,0,3.1.4,5.6,1.5,6.4,5.2,0,11.4-16.6,11.8-17.9s.2-.5.3-.5a.6.6,0,0,1,.6.6,1.5,1.5,0,0,1-.2.4c-.8,3.2-5.2,20.2-10.6,20.2C776.4,645.2,773.6,641.9,772.8,636.2Zm-.3-7.6a38,38,0,0,1,.6-5.9c-4.3.8-7.4,7.1-7.4,13.2a13.1,13.1,0,0,0,1.6,6.5C769.7,639.3,771.9,632.7,772.5,628.6Z" transform="translate(-602.4 -362.3)"/><path class="cls-1" d="M805.8,646.8c1.6,0,1.9,1,1.9,1.3s-.7.9-1.5.9c-13.3,0-13.5-13.3-13.5-22,0-14.7,3.8-34.1,6.2-34.1s8.9,3,8.9,4.3-.3.4-.5.4c-2.3,0-6.5,21.5-6.5,34.8C800.8,636.1,801.4,646.8,805.8,646.8Z" transform="translate(-602.4 -362.3)"/><path class="cls-1" d="M857.9,634.3c0,9.4-14.1,14.5-27.1,14.5-4.2,0-8.3-.7-10.8-1.9s-6.9-5-6.9-8c0-.2,0-.6.9-.6,4.3,2.4,11,3.9,18.5,3.9,9.2,0,17.8-2.8,17.8-10.6,0-4.2-2.6-7.5-9-9.6a46,46,0,0,1-11.5,1.3,67.1,67.1,0,0,0-1.1,11.7,42.6,42.6,0,0,0,.4,6.3c-2.4-.1-6.7-2.9-7.6-5a38.1,38.1,0,0,1-.7-8.1c0-1.7,0-3.7.2-6-1.2-.5-2.1-1.2-2.1-2.2s.5-1.5,2.5-1.8c1.7-12.7,6-23.8,7.7-23.8s9,3.2,9,4.3-.3.4-.6.4-4.5,8.5-6.8,18.9a71.6,71.6,0,0,1,7.4,1.2,16.4,16.4,0,0,0,9.4-14.9c0-6-3.7-12.2-14.5-12.2s-18.6,8.5-22,16.1q-.2.6-.6.6c-2.5,0-5-5.4-5-7.3,0-.2.1-.3.1-.5,4-5,15.7-11.3,27.7-11.3,14.5,0,22.8,8.6,22.8,17.2,0,6.5-4.5,11.6-11.7,14.2,6,2.4,9.9,5.5,11.7,7.7A9.4,9.4,0,0,1,857.9,634.3Z" transform="translate(-602.4 -362.3)"/><path class="cls-1" d="M876.3,630.8c-1.4,6.3-3,13.2-3.7,13.2-4.4,0-8.8-2.4-10.1-5.1a35.7,35.7,0,0,1-1.3-10c0-4,.9-10.1,2.8-10.1s8.2,3.4,8.2,4.5-.2.4-.3.4-2.8,6.2-2.8,11.4c0,2.8.4,5.4,1.5,6.2s4.4-11.8,6.2-17.6c.4-2.7,1.1-4.9,2.3-4.9,2.8,0,8.2,3.6,8.2,4.5s-.2.4-.3.4-2.7,6.9-2.7,12.3c0,3.1.4,5.6,1.5,6.4,5.2,0,11.4-16.6,11.8-17.9s.1-.5.3-.5a.6.6,0,0,1,.5.6c0,.4-5.9,20.6-10.6,20.6s-9.2-2.2-10.4-5.1A33.3,33.3,0,0,1,876.3,630.8Z" transform="translate(-602.4 -362.3)"/><path class="cls-1" d="M922.4,627.3a22.9,22.9,0,0,1-7.7,7.8l-1.9,1.2c2,1.2,3.9,2.6,3.9,4.7,0,3.9-5.3,9.6-8.4,9.6s-9.8-3.4-9.8-7.6,5.6-5,10.3-7.1c-3.1-2.6-10.9-4.4-10.9-9.2s4.5-9.7,8.4-9.7,9.8,3.4,9.8,7.1c0,.5-.2.7-.4.7s-1.3-1.9-2.9-1.9-7.2,5.4-7.2,8.1,2.3,2.9,4.9,4.1c4.9-2.3,10-6.1,12.2-10.5s4.8-7.6,8.2-7.6,9.8,3.4,9.8,7.1c0,.5-.3.7-.5.7s-1.3-1.9-2.9-1.9-7.1,5.4-7.1,8.1,10.8,3.8,10.8,9-5.3,9.5-8.3,9.5-12.1-6.6-12.1-9.1.9-3.3,2.4-3.4,5.9,1.3,5.9,3.5c0,.4-2.8,1-2.8,4.1a4.7,4.7,0,0,0,1.7.3c4.3,0,6.6-4.5,6.6-7C934.1,633.7,923.3,632.8,922.4,627.3Zm-19.5,18c2.2,0,7.3-4.5,7.3-7.3,0-.1-.1-.4-.1-.5-4.4,1.9-9.1,3.7-9.1,6A1.7,1.7,0,0,0,902.9,645.3Z" transform="translate(-602.4 -362.3)"/><path class="cls-1" d="M946,629.9c0-3.9,1.1-11.1,3.2-11.1s8.2,3.4,8.2,4.5-.2.4-.3.4-2.7,6.9-2.7,12.3c0,3.1.4,5.6,1.4,6.4,5.2,0,11.4-16.6,11.8-17.9s.3-.5.4-.5a.6.6,0,0,1,.6.6c-.6,1.5-5.2,20.6-10.8,20.6s-8.7-2.2-10.1-5.1A28.5,28.5,0,0,1,946,629.9Zm15.6-19.7c0,.4-4.3,1.4-4.3,5.7-2.6-.7-6.5-2.3-6.5-5.7a3.9,3.9,0,0,1,3.8-4C955.7,606.2,961.6,608.1,961.6,610.2Z" transform="translate(-602.4 -362.3)"/><path class="cls-1" d="M975.7,633.1a43,43,0,0,1,7.8-12.3c.4-1.2,1.1-2,1.8-2,2.4,0,8.4,3.3,8.4,4.4s-.2.5-.5.5-2.8,7.5-2.8,13.2c0,3.5.6,6.8,1.5,6.8,5.2,0,11.6-17.9,11.8-19.2s.2-.5.4-.5a.6.6,0,0,1,.5.6c0,.4-5,21.8-11,21.8-4.2,0-8.8-2.3-10.1-5.1a46.1,46.1,0,0,1-1.1-10.5,47.3,47.3,0,0,1,.4-6.5c-3.2,4.4-6.4,11.4-6.4,16.3,0,.6.1,1.2.1,1.7V642a21.7,21.7,0,0,0,.4,2.5c-6.5,0-9.4-5.5-9.4-14,0-4.9.8-11.7,2.9-11.7s8.1,3.4,8.1,4.5-1.2.3-2,4.2A27,27,0,0,0,975.7,633.1Z" transform="translate(-602.4 -362.3)"/><path class="cls-1" d="M1002.2,630.9c0-3.3,2.4-12.2,8.7-12.2s11.4,4.5,11.4,9.9-2.8,8-6.2,8-4.9-2.3-5.7-3.3a10.9,10.9,0,0,0-.1,1.8,8,8,0,0,0,4.1,7.3c9.5,0,14.7-16.6,14.9-17.9s.2-.5.4-.5a.6.6,0,0,1,.6.5c0,.6-4.5,20.7-14.2,20.7S1002.2,637.9,1002.2,630.9Zm8.3,1.7h.4c4.4,0,8.3-3.1,8.3-7.2a6.1,6.1,0,0,0-.9-3C1014.3,623.2,1011.3,627.8,1010.5,632.6Z" transform="translate(-602.4 -362.3)"/><path class="cls-1" d="M1054.1,624c.3,0,.4.4.4.6-1.5,4.3-4.9,7.7-9,10.5l-2,1.2c2.1,1.2,4,2.6,4,4.7,0,3.9-5.3,9.6-8.4,9.6s-9.8-3.4-9.8-7.6,5.6-5,10.3-7.1c-3.1-2.6-10.9-4.4-10.9-9.2s4.5-9.7,8.4-9.7,9.8,3.4,9.8,7.1c0,.5-.2.7-.5.7s-1.3-1.9-2.9-1.9-7.1,5.4-7.1,8.1,2.3,2.9,4.9,4.1l2.4-1.2c4.2-2.5,8-5.6,10-9.4C1053.7,624.1,1053.8,624,1054.1,624Zm-20.4,21.3c2.2,0,7.3-4.5,7.3-7.3,0-.1-.1-.4-.1-.5-4.4,1.9-9.1,3.7-9.1,6A1.7,1.7,0,0,0,1033.7,645.3Z" transform="translate(-602.4 -362.3)"/></svg>